<svg xmlns="http://www.w3.org/2000/svg" xmlns:xlink="http://www.w3.org/1999/xlink" width="74.849" height="66.22" viewBox="0 0 74.849 66.22">
  <defs>
    <clipPath id="clip-path">
      <rect width="74.848" height="66.22" fill="none"/>
    </clipPath>
    <clipPath id="clip-path-2">
      <rect id="Rectangle_1268" data-name="Rectangle 1268" width="74.848" height="66.22" fill="#1e0d51"/>
    </clipPath>
  </defs>
  <g id="Repeat_Grid_1" data-name="Repeat Grid 1" clip-path="url(#clip-path)">
    <g id="Group_921" data-name="Group 921">
      <g id="Group_920" data-name="Group 920" clip-path="url(#clip-path-2)">
        <path id="Path_284" data-name="Path 284" d="M53.055,23.744a22.167,22.167,0,1,1-15.642,6.492,22.009,22.009,0,0,1,15.642-6.492M67.033,31.9a19.775,19.775,0,1,0,5.786,13.977A19.746,19.746,0,0,0,67.033,31.9" transform="translate(-15.631 -12.003)" fill="#1e0d51"/>
        <path id="Path_285" data-name="Path 285" d="M15.06,50.05a1.2,1.2,0,0,1-1.194,1.194,1.185,1.185,0,0,1-1.178-1.194,31.142,31.142,0,0,1,5.4-17.543,1.185,1.185,0,1,1,1.951,1.345,28.584,28.584,0,0,0-4.979,16.2m52.58-16.2a1.184,1.184,0,1,1,1.95-1.345,30.958,30.958,0,0,1,4.037,8.359A31.181,31.181,0,0,1,43.838,81.218a1.184,1.184,0,0,1-1.177-1.194,1.17,1.17,0,0,1,1.177-1.178,28.786,28.786,0,0,0,23.8-44.994" transform="translate(-6.414 -16.175)" fill="#1e0d51"/>
        <path id="Path_286" data-name="Path 286" d="M8.949,47.147h0a1.164,1.164,0,0,1,1.11,1.6A27.882,27.882,0,0,0,9,53.135a29.141,29.141,0,0,0-.353,4.575A28.833,28.833,0,0,0,9,62.285a28.482,28.482,0,0,0,1.076,4.44,1.188,1.188,0,0,1-.757,1.5.907.907,0,0,1-.37.067A8.987,8.987,0,0,1,0,59.324V56.095a8.958,8.958,0,0,1,8.948-8.948M6.662,52.765c.168-1.043.386-2.052.639-3.044a6.644,6.644,0,0,0-2.994,1.733,6.533,6.533,0,0,0-1.934,4.642v3.229a6.574,6.574,0,0,0,1.934,4.659A6.764,6.764,0,0,0,7.3,65.7c-.253-.992-.471-2-.639-3.044a31.775,31.775,0,0,1,0-9.89M65.9,47.147h0a8.958,8.958,0,0,1,8.948,8.948v3.229A8.987,8.987,0,0,1,65.9,68.29a1.18,1.18,0,0,1-1.111-1.615,27.618,27.618,0,0,0,1.061-4.39,28.807,28.807,0,0,0,.37-4.575,29.129,29.129,0,0,0-.37-4.575,28.426,28.426,0,0,0-1.076-4.44,1.188,1.188,0,0,1,.757-1.5,1.4,1.4,0,0,1,.37-.05m4.643,4.306A6.562,6.562,0,0,0,67.55,49.72a30.861,30.861,0,0,1,.638,3.044,30.544,30.544,0,0,1,0,9.89A29.874,29.874,0,0,1,67.55,65.7a6.68,6.68,0,0,0,2.994-1.716,6.577,6.577,0,0,0,1.934-4.659V56.095a6.537,6.537,0,0,0-1.934-4.642" transform="translate(-0.001 -23.834)" fill="#1e0d51"/>
        <path id="Path_287" data-name="Path 287" d="M28.377,17.426a4.151,4.151,0,0,1-7.3-2.338,4.165,4.165,0,0,1,.975-3.028,34.174,34.174,0,0,1,5.366-5.1A35.1,35.1,0,0,1,33.76,3.145,33.89,33.89,0,0,1,48.073,0,34.069,34.069,0,0,1,68.729,6.964a35.053,35.053,0,0,1,5.382,5.1,4.15,4.15,0,0,1,.958,3.028,4.153,4.153,0,0,1-7.3,2.338,26.665,26.665,0,0,0-4.053-3.869,26.076,26.076,0,0,0-4.794-2.876A25.531,25.531,0,0,0,53.658,8.9a26.557,26.557,0,0,0-5.585-.589,26.263,26.263,0,0,0-5.567.589,25.339,25.339,0,0,0-5.282,1.783,25.73,25.73,0,0,0-8.848,6.745m-3.011-.909a1.773,1.773,0,0,0,1.194-.623A29.311,29.311,0,0,1,31,11.673a28.408,28.408,0,0,1,5.231-3.145A29.475,29.475,0,0,1,42,6.576,28.119,28.119,0,0,1,59.915,8.528a27.861,27.861,0,0,1,5.231,3.145,28.562,28.562,0,0,1,4.44,4.221,1.852,1.852,0,0,0,1.211.623,1.773,1.773,0,0,0,1.295-.42,1.846,1.846,0,0,0,.623-1.211,1.773,1.773,0,0,0-.421-1.3,31.74,31.74,0,0,0-5-4.743,32.169,32.169,0,0,0-5.9-3.549A30.43,30.43,0,0,0,54.9,3.112a31.893,31.893,0,0,0-13.658,0A30.434,30.434,0,0,0,34.751,5.3a32.049,32.049,0,0,0-5.887,3.549,32.606,32.606,0,0,0-5.012,4.743,1.759,1.759,0,0,0-.4,1.3,1.715,1.715,0,0,0,.623,1.211,1.776,1.776,0,0,0,1.3.42" transform="translate(-10.649 0)" fill="#1e0d51"/>
        <path id="Path_288" data-name="Path 288" d="M73.228,124.33a2.371,2.371,0,1,1,0,4.743H70.2a2.363,2.363,0,1,1,0-4.726Z" transform="translate(-34.289 -62.853)" fill="#1e0d51"/>
        <path id="Path_289" data-name="Path 289" d="M48.009,66.012A1.2,1.2,0,0,1,49.2,67.206a1.185,1.185,0,0,1-1.194,1.178H42.694A1.184,1.184,0,0,1,41.5,67.206l.017-.1c0-1.817,1.547-2.876,3.128-3.935,1.076-.741,2.187-1.48,2.187-2.2a1.544,1.544,0,0,0-.353-1.11,1.309,1.309,0,0,0-.992-.336,1.5,1.5,0,0,0-1.06.454,1.541,1.541,0,0,0-.555,1.009,1.177,1.177,0,1,1-2.355-.017A4,4,0,0,1,42.8,58.241a3.946,3.946,0,0,1,2.691-1.093,3.619,3.619,0,0,1,2.708,1.076A3.876,3.876,0,0,1,49.2,60.966c0,1.968-1.632,3.061-3.246,4.155-.437.3-.875.605-1.245.891Z" transform="translate(-20.98 -28.89)" fill="#1e0d51"/>
        <path id="Path_290" data-name="Path 290" d="M64.061,67.206a1.185,1.185,0,0,1-1.195,1.177,1.17,1.17,0,0,1-1.177-1.177v-1.43h-3.4a1.185,1.185,0,0,1-1.177-1.195v-.5a1.11,1.11,0,0,1,.219-.673l4-5.685a1.2,1.2,0,0,1,1.009-.572h.521a1.2,1.2,0,0,1,1.195,1.194v5.08a1.186,1.186,0,0,1,0,2.322Zm-2.372-3.8V61.336L60.226,63.4Z" transform="translate(-28.873 -28.89)" fill="#1e0d51"/>
        <path id="Path_291" data-name="Path 291" d="M97.876,67.205A1.17,1.17,0,0,1,96.7,68.383,1.185,1.185,0,0,1,95.5,67.205c0-2.439,1.329-4.222,2.54-5.853a15.764,15.764,0,0,0,1.228-1.833H95.488a1.185,1.185,0,0,1-1.195-1.177,1.2,1.2,0,0,1,1.195-1.195H100.8A1.2,1.2,0,0,1,102,58.342c0,1.665-.992,2.994-2.052,4.424-.992,1.329-2.069,2.775-2.069,4.44" transform="translate(-47.668 -28.89)" fill="#1e0d51"/>
        <path id="Path_292" data-name="Path 292" d="M76.9,67.779A1.183,1.183,0,0,1,74.847,66.6l6.139-10.631a1.176,1.176,0,0,1,2.035,1.178Z" transform="translate(-37.759 -28)" fill="#1e0d51"/>
      </g>
    </g>
  </g>
</svg>
