<svg xmlns="http://www.w3.org/2000/svg" xmlns:xlink="http://www.w3.org/1999/xlink" width="68.84" height="68.84" viewBox="0 0 68.84 68.84">
  <defs>
    <clipPath id="clip-path">
      <rect id="Rectangle_1265" data-name="Rectangle 1265" width="68.84" height="68.84" transform="translate(0 0)" fill="#fff"/>
    </clipPath>
  </defs>
  <g id="Group_913" data-name="Group 913" transform="translate(0 0.002)">
    <g id="Group_912" data-name="Group 912" transform="translate(0 -0.002)" clip-path="url(#clip-path)">
      <path id="Path_267" data-name="Path 267" d="M59.159,49.477a9.693,9.693,0,0,0-9.618,8.6H37.006a5.911,5.911,0,0,0-11.627,0H13.445a11.294,11.294,0,1,1,0-22.588h2.791a5.911,5.911,0,0,0,11.627,0H40.977a5.911,5.911,0,0,0,11.626,0h2.792a13.445,13.445,0,1,0,0-26.891H43.46a5.911,5.911,0,0,0-11.627,0H19.3a9.681,9.681,0,1,0,0,2.151H31.833a5.911,5.911,0,0,0,11.627,0H55.395a11.294,11.294,0,0,1,0,22.588H52.6a5.911,5.911,0,0,0-11.626,0H27.863a5.911,5.911,0,0,0-11.627,0H13.445a13.445,13.445,0,1,0,0,26.891H25.38a5.911,5.911,0,0,0,11.627,0H49.543a9.679,9.679,0,1,0,9.617-10.756M37.647,13.444a3.772,3.772,0,1,1,3.606-2.69,3.771,3.771,0,0,1-3.606,2.69M17.21,9.679A7.525,7.525,0,0,1,2.237,10.754a7.414,7.414,0,0,1-.086-1.076A7.414,7.414,0,0,1,2.237,8.6,7.53,7.53,0,0,1,17.21,9.679m1.076,24.739a3.73,3.73,0,0,1,.159-1.076,3.725,3.725,0,1,1-.159,1.076m24.739,0a3.772,3.772,0,1,1,.159,1.076,3.747,3.747,0,0,1-.159-1.076M59.159,66.687a7.534,7.534,0,0,1-7.443-6.454,6.759,6.759,0,0,1,0-2.151,7.525,7.525,0,1,1,7.443,8.605m-24.2-7.529a3.771,3.771,0,1,1-.159-1.076,3.753,3.753,0,0,1,.159,1.076" transform="translate(0 0.002)" fill="#fff"/>
      <path id="Path_268" data-name="Path 268" d="M1715.789,1710.14a5.647,5.647,0,1,0,5.647,5.647,5.655,5.655,0,0,0-5.647-5.647m0,9.143a3.5,3.5,0,1,1,3.5-3.5,3.5,3.5,0,0,1-3.5,3.5" transform="translate(-1656.63 -1656.627)" fill="#fff"/>
      <path id="Path_269" data-name="Path 269" d="M1840.662,1839.046a1.613,1.613,0,1,0,1.614,1.613,1.6,1.6,0,0,0-1.614-1.613" transform="translate(-1781.503 -1781.5)" fill="#fff"/>
      <path id="Path_270" data-name="Path 270" d="M176.176,141.79v3.092h-4.034a.269.269,0,0,0-.269.269v3.5a.269.269,0,0,0,.269.269h4.034v3.092c0,.148.085.184.19.079l5-5a.269.269,0,0,0,0-.38l-5-5c-.1-.1-.19-.069-.19.079" transform="translate(-166.495 -137.218)" fill="#fff"/>
    </g>
  </g>
</svg>
