<svg id="Group_911" data-name="Group 911" xmlns="http://www.w3.org/2000/svg" xmlns:xlink="http://www.w3.org/1999/xlink" width="68.178" height="68.84" viewBox="0 0 68.178 68.84">
  <defs>
    <clipPath id="clip-path">
      <rect id="Rectangle_1264" data-name="Rectangle 1264" width="68.178" height="68.84" fill="#fff"/>
    </clipPath>
  </defs>
  <rect id="Rectangle_1258" data-name="Rectangle 1258" width="28.752" height="2.165" transform="translate(19.794 47.889)" fill="#fff"/>
  <rect id="Rectangle_1259" data-name="Rectangle 1259" width="2.165" height="19.871" transform="translate(33.087 48.969)" fill="#fff"/>
  <g id="Group_910" data-name="Group 910">
    <g id="Group_909" data-name="Group 909" clip-path="url(#clip-path)">
      <path id="Path_256" data-name="Path 256" d="M41.456,183.207a5.506,5.506,0,1,1,5.506-5.506,5.512,5.512,0,0,1-5.506,5.506m0-8.847A3.341,3.341,0,1,0,44.8,177.7a3.345,3.345,0,0,0-3.341-3.341" transform="translate(-31.086 -148.899)" fill="#fff"/>
      <path id="Path_257" data-name="Path 257" d="M52.581,402.195,48.6,393.772a2.54,2.54,0,0,0-2.286-1.448H39.728A3.829,3.829,0,0,1,35.9,388.5v-1.68h2.165v1.68a1.662,1.662,0,0,0,1.661,1.661H46.31a4.715,4.715,0,0,1,4.243,2.686l3.984,8.423Z" transform="translate(-31.046 -334.487)" fill="#fff"/>
      <path id="Path_258" data-name="Path 258" d="M109.732,341.823l-4.944-10.45a3.426,3.426,0,0,0-3.084-1.952h-1.391a2.945,2.945,0,0,1-2.942-2.941v-7.29h2.165v7.29a.778.778,0,0,0,.777.777h1.391a5.6,5.6,0,0,1,5.04,3.191l4.944,10.45Z" transform="translate(-84.2 -276.007)" fill="#fff"/>
      <path id="Path_259" data-name="Path 259" d="M38.114,277.5H35.949V264.16a4.349,4.349,0,0,1,4.344-4.344H42.8a5.89,5.89,0,0,1,3.77,1.371,1.071,1.071,0,0,1,.083.076l3.272,3.367,7.317,1.487a1.082,1.082,0,0,1,.867,1.066l-.011,2.43a1.083,1.083,0,0,1-1.092,1.077l-8.229-.07a1.081,1.081,0,0,1-.467-.111l-6.3-3.088.953-1.944,6.078,2.979,6.9.059,0-.454-6.774-1.377a1.081,1.081,0,0,1-.56-.306l-3.464-3.564a3.716,3.716,0,0,0-2.34-.834h-2.51a2.182,2.182,0,0,0-2.179,2.18Z" transform="translate(-31.086 -224.666)" fill="#fff"/>
      <path id="Path_260" data-name="Path 260" d="M15.944,371.894H7.767A7.776,7.776,0,0,1,0,364.127V358.5H2.165v5.624a5.609,5.609,0,0,0,5.6,5.6h8.177Z" transform="translate(0 -310.002)" fill="#fff"/>
      <rect id="Rectangle_1260" data-name="Rectangle 1260" width="2.165" height="8.03" transform="translate(6.685 60.81)" fill="#fff"/>
      <path id="Path_261" data-name="Path 261" d="M392.112,183.207a5.506,5.506,0,1,1,5.506-5.506,5.512,5.512,0,0,1-5.506,5.506m0-8.847a3.341,3.341,0,1,0,3.341,3.341,3.345,3.345,0,0,0-3.341-3.341" transform="translate(-334.303 -148.899)" fill="#fff"/>
      <path id="Path_262" data-name="Path 262" d="M332.26,402.195l-1.957-.926,3.984-8.423a4.715,4.715,0,0,1,4.243-2.686h6.582a1.662,1.662,0,0,0,1.661-1.661v-1.68h2.165v1.68a3.829,3.829,0,0,1-3.825,3.825h-6.582a2.54,2.54,0,0,0-2.286,1.448Z" transform="translate(-285.617 -334.487)" fill="#fff"/>
      <path id="Path_263" data-name="Path 263" d="M302.709,341.823l-1.957-.926,4.944-10.45a5.6,5.6,0,0,1,5.041-3.191h1.39a.778.778,0,0,0,.777-.777v-7.29h2.165v7.29a2.945,2.945,0,0,1-2.941,2.941h-1.39a3.426,3.426,0,0,0-3.084,1.952Z" transform="translate(-260.064 -276.007)" fill="#fff"/>
      <path id="Path_264" data-name="Path 264" d="M326.35,277.5h-2.165V264.16a2.182,2.182,0,0,0-2.18-2.18H319.5a3.722,3.722,0,0,0-2.334.828l-3.47,3.57a1.081,1.081,0,0,1-.56.306l-6.774,1.377,0,.454,6.9-.059,6.078-2.979.953,1.944-6.3,3.088a1.081,1.081,0,0,1-.467.111l-8.229.07a1.072,1.072,0,0,1-.77-.312,1.083,1.083,0,0,1-.322-.765l-.011-2.43a1.082,1.082,0,0,1,.867-1.066l7.317-1.487,3.239-3.332a1.137,1.137,0,0,1,.115-.112,5.893,5.893,0,0,1,3.77-1.371h2.51a4.349,4.349,0,0,1,4.344,4.344Z" transform="translate(-263.036 -224.666)" fill="#fff"/>
      <path id="Path_265" data-name="Path 265" d="M394.271,371.894h-8.177V369.73h8.177a5.609,5.609,0,0,0,5.6-5.6V358.5h2.165v5.624a7.776,7.776,0,0,1-7.767,7.767" transform="translate(-333.86 -310.002)" fill="#fff"/>
      <rect id="Rectangle_1261" data-name="Rectangle 1261" width="2.165" height="8.03" transform="translate(59.328 60.81)" fill="#fff"/>
      <path id="Path_266" data-name="Path 266" d="M133.035,29.955a1.082,1.082,0,0,1-.93-1.635,13.005,13.005,0,0,0,1.692-5.256c-4.674-2.176-7.548-6.241-7.548-10.749C126.248,5.525,132.871,0,141.012,0s14.764,5.525,14.764,12.316c0,6.415-5.9,11.738-13.506,12.273-1.17,1.153-5.424,5.091-9.157,5.364l-.079,0m7.978-27.791c-6.947,0-12.6,4.554-12.6,10.151,0,3.817,2.624,7.277,6.848,9.029a1.082,1.082,0,0,1,.662.884,11.038,11.038,0,0,1-.9,4.983,22.527,22.527,0,0,0,5.987-4.428,1.083,1.083,0,0,1,.731-.333c6.655-.308,11.868-4.76,11.868-10.135,0-5.6-5.652-10.151-12.6-10.151" transform="translate(-109.168)" fill="#fff"/>
      <rect id="Rectangle_1262" data-name="Rectangle 1262" width="14.751" height="2.165" transform="translate(24.469 7.743)" fill="#fff"/>
      <rect id="Rectangle_1263" data-name="Rectangle 1263" width="7.407" height="2.165" transform="translate(24.437 13.078)" fill="#fff"/>
    </g>
  </g>
</svg>
