<svg id="Group_905" data-name="Group 905" xmlns="http://www.w3.org/2000/svg" xmlns:xlink="http://www.w3.org/1999/xlink" width="63.703" height="59.099" viewBox="0 0 63.703 59.099">
  <defs>
    <clipPath id="clip-path">
      <rect id="Rectangle_1132" data-name="Rectangle 1132" width="63.703" height="59.099" fill="#fff"/>
    </clipPath>
  </defs>
  <g id="Group_659" data-name="Group 659" clip-path="url(#clip-path)">
    <path id="Path_9" data-name="Path 9" d="M17.7,380.392l-.011-.02-.005-.008L7.8,363.248a.591.591,0,0,0-.8-.215c-.008,0-4.665,2.676-5.068,2.925a.592.592,0,0,0-.216.8l10.978,19.017a.6.6,0,0,0,.8.213l5.1-2.947a.594.594,0,0,0,.2-.747.954.954,0,0,1-.057-.1Zm26.752-9.9h0l12.439-7.182a.675.675,0,0,0,.111-.064,3.439,3.439,0,0,1,4.585,1.239.79.79,0,0,0,.062.105,3.437,3.437,0,0,1-1.24,4.585.744.744,0,0,0-.111.066L41.44,380.123a6.6,6.6,0,0,1-5.207.683l-13.97-3.743a.815.815,0,0,0-.675.116l-2.894,1.67-7.87-13.631,9.312-5.373a6.582,6.582,0,0,1,5.2-.684l15.925,4.266a3.684,3.684,0,0,1,2.6,4.508,4.929,4.929,0,0,1-.657,1.473v0l0,.006a3.86,3.86,0,0,1-1.049,1.063,3.461,3.461,0,0,1-2.894.42L30.7,368.607a.82.82,0,1,0-.423,1.584l8.558,2.293a5.061,5.061,0,0,0,4.227-.647,5.477,5.477,0,0,0,1.387-1.35M6.59,366.118h0a1.67,1.67,0,1,1-1.669,1.67,1.67,1.67,0,0,1,1.669-1.67m2.649-3.643.767,1.328,9.308-5.375a8.247,8.247,0,0,1,6.447-.852l15.878,4.255a.7.7,0,0,1,.1.026,5.337,5.337,0,0,1,3.8,6.112l10.584-6.112.053-.028a5.066,5.066,0,0,1,6.855,1.878l.029.054a5.063,5.063,0,0,1-1.878,6.854L42.254,381.54a8.246,8.246,0,0,1-6.444.85l-13.646-3.656-2.653,1.532.68,1.177a2.224,2.224,0,0,1-.811,3.037l-5.068,2.925a2.224,2.224,0,0,1-3.036-.813L.3,367.579a2.225,2.225,0,0,1,.812-3.037l5.069-2.925a2.223,2.223,0,0,1,3.036.811Z" transform="translate(0 -328.605)" fill="#fff" fill-rule="evenodd"/>
    <path id="Path_10" data-name="Path 10" d="M346.645,5.319a12.557,12.557,0,1,0,3.678,8.879,12.518,12.518,0,0,0-3.678-8.879M337.766,0a14.2,14.2,0,1,1-10.039,4.159A14.154,14.154,0,0,1,337.766,0" transform="translate(-297.606 0)" fill="#fff" fill-rule="evenodd"/>
    <path id="Path_11" data-name="Path 11" d="M440.64,62.868c-.263-1.066-1.43-1.775-2.7-2.294V65.7a4.93,4.93,0,0,0,.718-.116,2.9,2.9,0,0,0,1.556-.895A2.033,2.033,0,0,0,440.7,63.4a2.081,2.081,0,0,0-.062-.528M436.3,53.642a3.226,3.226,0,0,0-2.045,1.091,2.138,2.138,0,0,0-.481.959,1.5,1.5,0,0,0,.121.942,3.7,3.7,0,0,0,2.359,1.625l.046.016Zm4.9-.692a.819.819,0,0,1-.577,1.533,16.282,16.282,0,0,0-2-.623c-.229-.054-.458-.1-.685-.139v5.1c1.843.671,3.8,1.686,4.288,3.655a3.744,3.744,0,0,1,.107.94,3.653,3.653,0,0,1-.87,2.319,4.489,4.489,0,0,1-2.415,1.433,6.313,6.313,0,0,1-1.11.169v1.738a.821.821,0,1,1-1.642,0V67.284a10.925,10.925,0,0,1-1.982-.425,10.5,10.5,0,0,1-2.743-1.315.817.817,0,0,1,.918-1.353,8.822,8.822,0,0,0,2.313,1.1,9.281,9.281,0,0,0,1.495.34V59.99c-.181-.058-.364-.12-.546-.173a5.219,5.219,0,0,1-3.334-2.478,3.1,3.1,0,0,1-.256-1.949A3.769,3.769,0,0,1,433,53.68,4.9,4.9,0,0,1,436.3,52V50.255a.821.821,0,1,1,1.642,0v1.808c.354.049.708.117,1.057.2a17.965,17.965,0,0,1,2.206.687" transform="translate(-396.617 -45.468)" fill="#fff" fill-rule="evenodd"/>
  </g>
</svg>
