<svg id="Group_915" data-name="Group 915" xmlns="http://www.w3.org/2000/svg" xmlns:xlink="http://www.w3.org/1999/xlink" width="94.187" height="67.319" viewBox="0 0 94.187 67.319">
  <defs>
    <clipPath id="clip-path">
      <rect id="Rectangle_1266" data-name="Rectangle 1266" width="94.187" height="67.319" fill="#1e0d51"/>
    </clipPath>
  </defs>
  <g id="Group_914" data-name="Group 914" clip-path="url(#clip-path)">
    <path id="Path_271" data-name="Path 271" d="M92.961,10.352H72.137l8.258-8.258A1.227,1.227,0,0,0,78.66.36l-9.991,9.991H1.226A1.226,1.226,0,0,0,0,11.577V55.741a1.226,1.226,0,0,0,1.226,1.226H22.05l-8.258,8.258a1.227,1.227,0,0,0,1.735,1.735l9.991-9.991H92.961a1.226,1.226,0,0,0,1.226-1.226V11.579a1.225,1.225,0,0,0-1.226-1.226M2.454,54.516V12.805h63.76L63.76,15.259h-48.4a1.226,1.226,0,0,0-1.226,1.226,7.286,7.286,0,0,1-7.278,7.278A1.226,1.226,0,0,0,5.63,24.99V42.329a1.226,1.226,0,0,0,1.226,1.226,7.286,7.286,0,0,1,7.278,7.278,1.226,1.226,0,0,0,1.226,1.226h11.6L24.5,54.514H2.454ZM45.229,30.24c0-.605.4-1.06,1.3-1.192V31.6c-1.04-.377-1.3-.775-1.3-1.361m4.425,6.071c0,.681-.454,1.1-1.343,1.229V34.911c1.022.36,1.343.776,1.343,1.4M43.5,38.993a9.355,9.355,0,0,0,2.942.894v1.021a.984.984,0,1,0,1.968,0v-1c2.383-.265,4.01-1.626,4.01-3.745a3.574,3.574,0,0,0-2.548-3.538l5.413-5.413A10.422,10.422,0,0,1,40.644,41.847ZM45.4,37.084l1.128-1.128v1.49a6.2,6.2,0,0,1-1.128-.362m2.906-6.376v-1.49a6.376,6.376,0,0,1,1.087.4Zm2.984-2.984c-.048-.034-.1-.066-.146-.1a7.966,7.966,0,0,0-2.743-.909v-.265a.984.984,0,1,0-1.968,0v.226c-2.383.246-3.972,1.645-3.972,3.726,0,1.8.861,2.826,2.6,3.543l-2.36,2.36a1.238,1.238,0,0,0-.473.473l-3.326,3.326A10.422,10.422,0,0,1,53.545,25.472ZM38.9,43.591A12.875,12.875,0,0,0,57.024,25.465l7.753-7.753h12.9a9.752,9.752,0,0,0,8.429,8.429v15.04a9.752,9.752,0,0,0-8.429,8.429h-44.8ZM55.289,23.73A12.875,12.875,0,0,0,37.163,41.856L29.41,49.609H16.51a9.752,9.752,0,0,0-8.429-8.429V26.141a9.752,9.752,0,0,0,8.429-8.429h44.8ZM91.734,54.516H27.974l2.454-2.454h48.4a1.226,1.226,0,0,0,1.226-1.226,7.286,7.286,0,0,1,7.278-7.278,1.226,1.226,0,0,0,1.226-1.226V24.991a1.226,1.226,0,0,0-1.226-1.226,7.286,7.286,0,0,1-7.278-7.278,1.226,1.226,0,0,0-1.226-1.226h-11.6l2.454-2.454h22.05v41.71Z" fill="#1e0d51"/>
    <path id="Path_272" data-name="Path 272" d="M501.936,213.078h7.5a1.226,1.226,0,1,0,0-2.453h-7.5a1.226,1.226,0,1,0,0,2.453" transform="translate(-434.395 -182.729)" fill="#1e0d51"/>
    <path id="Path_273" data-name="Path 273" d="M501.936,247.348h7.5a1.226,1.226,0,1,0,0-2.453h-7.5a1.226,1.226,0,1,0,0,2.453" transform="translate(-434.395 -212.461)" fill="#1e0d51"/>
    <path id="Path_274" data-name="Path 274" d="M501.936,281.618h7.5a1.226,1.226,0,1,0,0-2.453h-7.5a1.226,1.226,0,1,0,0,2.453" transform="translate(-434.395 -242.192)" fill="#1e0d51"/>
    <path id="Path_275" data-name="Path 275" d="M136.526,213.078h7.5a1.226,1.226,0,1,0,0-2.453h-7.5a1.226,1.226,0,0,0,0,2.453" transform="translate(-117.381 -182.729)" fill="#1e0d51"/>
    <path id="Path_276" data-name="Path 276" d="M136.526,247.348h7.5a1.226,1.226,0,1,0,0-2.453h-7.5a1.226,1.226,0,1,0,0,2.453" transform="translate(-117.381 -212.461)" fill="#1e0d51"/>
    <path id="Path_277" data-name="Path 277" d="M136.526,281.618h7.5a1.226,1.226,0,1,0,0-2.453h-7.5a1.226,1.226,0,1,0,0,2.453" transform="translate(-117.381 -242.192)" fill="#1e0d51"/>
  </g>
</svg>
