<svg xmlns="http://www.w3.org/2000/svg" xmlns:xlink="http://www.w3.org/1999/xlink" width="62.66" height="71.611" viewBox="0 0 62.66 71.611">
  <defs>
    <clipPath id="clip-path">
      <rect id="Rectangle_1267" data-name="Rectangle 1267" width="62.66" height="71.611" fill="#1e0d51"/>
    </clipPath>
  </defs>
  <g id="Group_917" data-name="Group 917" transform="translate(0 0)">
    <g id="Group_916" data-name="Group 916" transform="translate(0 0)" clip-path="url(#clip-path)">
      <path id="Path_278" data-name="Path 278" d="M57.635,12.515A45.23,45.23,0,0,1,39.177,2.954a11.9,11.9,0,0,0-15.7,0A45.233,45.233,0,0,1,5.027,12.515,6.757,6.757,0,0,0,0,19.021V32.93A40.331,40.331,0,0,0,26.607,70.784a13.9,13.9,0,0,0,9.445,0A40.331,40.331,0,0,0,62.66,32.93V19.021A6.756,6.756,0,0,0,57.635,12.515ZM60.423,32.93a38.084,38.084,0,0,1-25.13,35.748h0a11.692,11.692,0,0,1-7.922,0A38.086,38.086,0,0,1,2.239,32.93V19.021A4.517,4.517,0,0,1,5.6,14.677,46.915,46.915,0,0,0,24.968,4.631a9.658,9.658,0,0,1,12.72,0A46.9,46.9,0,0,0,57.058,14.677a4.517,4.517,0,0,1,3.365,4.344Z" transform="translate(0 0)" fill="#1e0d51"/>
      <path id="Path_279" data-name="Path 279" d="M49.283,24.521a1.119,1.119,0,0,0-1.258.961C46.692,35.45,41.394,43.2,33.059,47.477a5.113,5.113,0,0,0-9.7,0C15.023,43.2,9.725,35.452,8.392,25.482a1.119,1.119,0,1,0-2.217.3c1.476,11.039,7.5,19.559,16.962,24.083a5.121,5.121,0,0,0,10.144,0c9.466-4.524,15.486-13.044,16.962-24.083a1.119,1.119,0,0,0-.96-1.258M28.208,52.037a2.909,2.909,0,1,1,2.909-2.909,2.912,2.912,0,0,1-2.909,2.909" transform="translate(3.122 12.412)" fill="#1e0d51"/>
      <path id="Path_280" data-name="Path 280" d="M50.934,14.457a5.126,5.126,0,0,0-3.8,1.68,51.163,51.163,0,0,1-12.369-6.99,5.223,5.223,0,0,0,.054-.732,5.147,5.147,0,0,0-10.293,0,5.219,5.219,0,0,0,.053.732,51.008,51.008,0,0,1-12.368,6.99A5.143,5.143,0,1,0,7.3,24.621v6.654a1.119,1.119,0,0,0,2.239,0V24.621A5.151,5.151,0,0,0,13.562,19.6a5.257,5.257,0,0,0-.229-1.514,53.4,53.4,0,0,0,12.086-6.783,5.141,5.141,0,0,0,8.51,0A53.506,53.506,0,0,0,46.016,18.09a5.256,5.256,0,0,0-.227,1.514,5.15,5.15,0,0,0,4.027,5.016v6.654a1.119,1.119,0,1,0,2.238,0V24.621a5.143,5.143,0,0,0-1.119-10.164ZM8.415,22.513A2.923,2.923,0,1,1,11.324,19.6a2.912,2.912,0,0,1-2.909,2.909M32.457,9.287A2.919,2.919,0,0,1,26.9,9.3a3.124,3.124,0,0,1-.13-.883,2.909,2.909,0,0,1,5.818,0,3.1,3.1,0,0,1-.127.872M50.934,22.513A2.909,2.909,0,1,1,53.843,19.6a2.912,2.912,0,0,1-2.909,2.909" transform="translate(1.655 1.655)" fill="#1e0d51"/>
      <path id="Path_281" data-name="Path 281" d="M31.65,45.076a5.6,5.6,0,0,0,5.595-5.595V24.936a12.309,12.309,0,0,0-24.618,0V39.481a5.6,5.6,0,0,0,5.595,5.595ZM17.817,17.815a10.069,10.069,0,0,1,17.189,7.121v2.237H31.65V24.936a6.714,6.714,0,1,0-13.428,0v2.237H14.866V24.936a10.009,10.009,0,0,1,2.951-7.121m11.595,9.358H20.46V24.936a4.475,4.475,0,1,1,8.951,0ZM14.866,39.481V29.411h20.14v10.07a3.359,3.359,0,0,1-3.356,3.356H18.222a3.36,3.36,0,0,1-3.356-3.356" transform="translate(6.394 6.394)" fill="#1e0d51"/>
      <path id="Path_282" data-name="Path 282" d="M21.926,34.206A3.349,3.349,0,0,0,23.045,27.7V26.374a1.119,1.119,0,1,0-2.239,0V27.7a3.349,3.349,0,0,0,1.119,6.508m0-4.476a1.119,1.119,0,1,1-1.119,1.119,1.12,1.12,0,0,1,1.119-1.119" transform="translate(9.404 12.789)" fill="#1e0d51"/>
    </g>
  </g>
</svg>
