<svg id="Group_702" data-name="Group 702" xmlns="http://www.w3.org/2000/svg" xmlns:xlink="http://www.w3.org/1999/xlink" width="107.143" height="68.999" viewBox="0 0 107.143 68.999">
  <defs>
    <clipPath id="clip-path">
      <rect id="Rectangle_1159" data-name="Rectangle 1159" width="107.143" height="68.999" fill="none"/>
    </clipPath>
  </defs>
  <g id="Group_701" data-name="Group 701" clip-path="url(#clip-path)">
    <path id="Path_197" data-name="Path 197" d="M9.608,68.66l-1.26-.9a1.8,1.8,0,0,1,.2-3.052,20.755,20.755,0,0,0,6.937-6.81,21.631,21.631,0,0,0,2.891-8.186q-8.7-2.914-13.308-8.44Q0,35.209,0,26.194a27.271,27.271,0,0,1,1.838-10.1,25.587,25.587,0,0,1,5.5-8.463A24.6,24.6,0,0,1,15.527,1.92,25.024,25.024,0,0,1,25.36,0,24.84,24.84,0,0,1,35.223,1.92,23.091,23.091,0,0,1,43.2,7.655a25.218,25.218,0,0,1,5.243,8.688,31.477,31.477,0,0,1,1.734,10.689,35.977,35.977,0,0,1-2.844,14.082A44.069,44.069,0,0,1,38.917,53.9a48.123,48.123,0,0,1-12.608,9.862A50.049,50.049,0,0,1,10.96,68.972a1.776,1.776,0,0,1-1.353-.312m8.949-8.891a23.349,23.349,0,0,1-3.815,4.7A44.948,44.948,0,0,0,24.6,60.6a44.267,44.267,0,0,0,11.666-9.134,40.5,40.5,0,0,0,7.746-11.741,32.309,32.309,0,0,0,2.555-12.689,28.045,28.045,0,0,0-1.52-9.481,21.693,21.693,0,0,0-4.5-7.463,19.437,19.437,0,0,0-6.741-4.862A21.347,21.347,0,0,0,25.36,3.608a21.591,21.591,0,0,0-8.44,1.619,21.085,21.085,0,0,0-6.989,4.891A22.019,22.019,0,0,0,5.191,17.4a23.72,23.72,0,0,0-1.584,8.8q0,7.735,4.215,12.781,4.283,5.133,13.036,7.746a1.8,1.8,0,0,1,1.272,1.9,25.849,25.849,0,0,1-3.573,11.146" transform="translate(0 -0.001)"/>
    <path id="Path_198" data-name="Path 198" d="M288.957,68.66l-1.26-.9a1.8,1.8,0,0,1,.2-3.052,20.775,20.775,0,0,0,6.943-6.81,21.724,21.724,0,0,0,2.89-8.186q-8.706-2.914-13.313-8.44-5.055-6.061-5.058-15.077a27.377,27.377,0,0,1,1.832-10.1,25.67,25.67,0,0,1,5.5-8.463,24.679,24.679,0,0,1,8.192-5.706,26.209,26.209,0,0,1,19.689,0,23.037,23.037,0,0,1,7.978,5.735,25.233,25.233,0,0,1,5.249,8.688,31.477,31.477,0,0,1,1.728,10.689,36.074,36.074,0,0,1-2.838,14.082A44.314,44.314,0,0,1,318.272,53.9a48.15,48.15,0,0,1-12.614,9.862,49.947,49.947,0,0,1-15.348,5.209,1.788,1.788,0,0,1-1.353-.312m8.949-8.891a22.949,22.949,0,0,1-3.815,4.7,45.011,45.011,0,0,0,9.868-3.873,44.462,44.462,0,0,0,11.666-9.134,40.631,40.631,0,0,0,7.746-11.741,32.313,32.313,0,0,0,2.555-12.689,28.045,28.045,0,0,0-1.521-9.481,21.866,21.866,0,0,0-4.5-7.463,19.546,19.546,0,0,0-6.741-4.862,22.841,22.841,0,0,0-16.892,0,21.11,21.11,0,0,0-6.995,4.891,22.2,22.2,0,0,0-4.74,7.278,23.845,23.845,0,0,0-1.584,8.8,19.306,19.306,0,0,0,4.215,12.781q4.283,5.133,13.036,7.746a1.81,1.81,0,0,1,1.278,1.9,25.934,25.934,0,0,1-3.578,11.146" transform="translate(-222.384 -0.001)"/>
  </g>
</svg>
